{"accessors" : [{"bufferView" : 0, "byteOffset" : 0, "componentType" : 5123, "count" : 34980, "type" : "SCALAR", "max" : [34979], "min" : [0]}, {"bufferView" : 1, "byteOffset" : 0, "componentType" : 5126, "count" : 34980, "type" : "VEC3", "max" : [-50.09740447998047, 3.8760509490966797, -14.321907043457031], "min" : [-58.26902770996094, 0.3932304382324219, -17.10472869873047], "name" : "POSITION"}, {"bufferView" : 1, "byteOffset" : 12, "componentType" : 5126, "count" : 34980, "type" : "VEC3", "max" : [1.000003695487976, 0.9999923706054688, 0.9999932646751404], "min" : [-1.0000035762786865, -0.9999924302101135, -0.9999932050704956], "name" : "NORMAL"}, {"bufferView" : 1, "byteOffset" : 24, "componentType" : 5126, "count" : 34980, "type" : "VEC2", "max" : [0.9831016659736633, -0.009765625], "min" : [0.009765625, -0.990234375], "name" : "TEXCOORD_0"}], "asset" : {"generator" : "Aspose.3D 22.3", "version" : "2.0"}, "buffers" : [{"uri" : "data:application/octet-stream;base64,", "byteLength" : 1189328}], "bufferViews" : [{"buffer" : 0, "byteOffset" : 0, "byteLength" : 69960, "target" : 34963}, {"buffer" : 0, "byteOffset" : 69964, "byteLength" : 1119360, "byteStride" : 32, "target" : 34962}], "materials" : [{"name" : "", "pbrMetallicRoughness" : {"baseColorFactor" : [0.5, 0.5, 0.5, 1], "metallicFactor" : 0, "roughnessFactor" : 0}, "emissiveFactor" : [0, 0, 0], "alphaMode" : "OPAQUE", "doubleSided" : false}], "meshes" : [{"primitives" : [{"attributes" : {"POSITION" : 1, "NORMAL" : 2, "TEXCOORD_0" : 3}, "indices" : 0, "material" : 0, "mode" : 4}]}], "nodes" : [{"matrix" : [1, 0, 0, 0, 0, 1, 0, 0, 0, 0, 1, 0, 52.01351465803401, 0, 10.646863660455173, 1], "mesh" : 0, "name" : "BAR01_sweep6"}], "scene" : 0, "scenes" : [{"nodes" : [0]}]}