{"accessors" : [{"bufferView" : 0, "byteOffset" : 0, "componentType" : 5123, "count" : 21420, "type" : "SCALAR", "max" : [21419], "min" : [0]}, {"bufferView" : 1, "byteOffset" : 0, "componentType" : 5126, "count" : 21420, "type" : "VEC3", "max" : [64.23046875, 3.2041995525360107, 26.341041564941406], "min" : [58.23927307128906, -1.3149163722991943, 24.617782592773438], "name" : "POSITION"}, {"bufferView" : 1, "byteOffset" : 12, "componentType" : 5126, "count" : 21420, "type" : "VEC3", "max" : [1.0000044107437134, 1.0000044107437134, 1.0000044107437134], "min" : [-1.0000044107437134, -1.0000044107437134, -1.0000044107437134], "name" : "NORMAL"}, {"bufferView" : 1, "byteOffset" : 24, "componentType" : 5126, "count" : 21420, "type" : "VEC2", "max" : [0.990234375, -0.009765625], "min" : [0.009765625, -0.8216454982757568], "name" : "TEXCOORD_0"}], "asset" : {"generator" : "Aspose.3D 22.1", "version" : "2.0"}, "buffers" : [{"uri" : "data:application/octet-stream;base64,", "byteLength" : 728288}], "bufferViews" : [{"buffer" : 0, "byteOffset" : 0, "byteLength" : 42840, "target" : 34963}, {"buffer" : 0, "byteOffset" : 42844, "byteLength" : 685440, "byteStride" : 32, "target" : 34962}], "materials" : [{"name" : "", "pbrMetallicRoughness" : {"baseColorFactor" : [0.5, 0.5, 0.5, 1], "metallicFactor" : 0, "roughnessFactor" : 0}, "emissiveFactor" : [0, 0, 0], "alphaMode" : "OPAQUE", "doubleSided" : false}], "meshes" : [{"primitives" : [{"attributes" : {"POSITION" : 1, "NORMAL" : 2, "TEXCOORD_0" : 3}, "indices" : 0, "material" : 0, "mode" : 4}], "name" : ""}], "nodes" : [{"mesh" : 0, "name" : "BAR01_pTorus1210"}], "scene" : 0, "scenes" : [{"nodes" : [0]}]}