{"accessors" : [{"bufferView" : 0, "byteOffset" : 0, "componentType" : 5123, "count" : 21504, "type" : "SCALAR", "max" : [21503], "min" : [0]}, {"bufferView" : 1, "byteOffset" : 0, "componentType" : 5126, "count" : 21504, "type" : "VEC3", "max" : [80.1455307006836, 0.3028743267059326, 27.883535385131836], "min" : [65.21464538574219, -1.2988836765289307, 23.568180084228516], "name" : "POSITION"}, {"bufferView" : 1, "byteOffset" : 12, "componentType" : 5126, "count" : 21504, "type" : "VEC3", "max" : [1.0000044107437134, 1.0000044107437134, 1.0000044107437134], "min" : [-1.0000044107437134, -1.0000044107437134, -1.0000044107437134], "name" : "NORMAL"}, {"bufferView" : 1, "byteOffset" : 24, "componentType" : 5126, "count" : 21504, "type" : "VEC2", "max" : [0.9882948994636536, -0.009765625], "min" : [0.009765625, -0.990234375], "name" : "TEXCOORD_0"}], "asset" : {"generator" : "Aspose.3D 22.1", "version" : "2.0"}, "buffers" : [{"uri" : "data:application/octet-stream;base64,", "byteLength" : 731144}], "bufferViews" : [{"buffer" : 0, "byteOffset" : 0, "byteLength" : 43008, "target" : 34963}, {"buffer" : 0, "byteOffset" : 43012, "byteLength" : 688128, "byteStride" : 32, "target" : 34962}], "materials" : [{"name" : "", "pbrMetallicRoughness" : {"baseColorFactor" : [0.5, 0.5, 0.5, 1], "metallicFactor" : 0, "roughnessFactor" : 0}, "emissiveFactor" : [0, 0, 0], "alphaMode" : "OPAQUE", "doubleSided" : false}], "meshes" : [{"primitives" : [{"attributes" : {"POSITION" : 1, "NORMAL" : 2, "TEXCOORD_0" : 3}, "indices" : 0, "material" : 0, "mode" : 4}], "name" : ""}], "nodes" : [{"mesh" : 0, "name" : "bancocancha6_BAR01_pCylinder278"}], "scene" : 0, "scenes" : [{"nodes" : [0]}]}