{"accessors" : [{"bufferView" : 0, "byteOffset" : 0, "componentType" : 5123, "count" : 2742, "type" : "SCALAR", "max" : [2741], "min" : [0]}, {"bufferView" : 1, "byteOffset" : 0, "componentType" : 5126, "count" : 2742, "type" : "VEC3", "max" : [9.151739120483398, 2.986781597137451, -13.660629272460938], "min" : [7.346519470214844, 0.43685293197631836, -15.465850830078125], "name" : "POSITION"}, {"bufferView" : 1, "byteOffset" : 12, "componentType" : 5126, "count" : 2742, "type" : "VEC3", "max" : [1.0000044107437134, 1.0000042915344238, 1.0000044107437134], "min" : [-1.0000044107437134, -1.0000042915344238, -1.0000044107437134], "name" : "NORMAL"}, {"bufferView" : 1, "byteOffset" : 24, "componentType" : 5126, "count" : 2742, "type" : "VEC2", "max" : [0.990234375, -0.009766167961061], "min" : [0.009765625, -0.9725348949432373], "name" : "TEXCOORD_0"}], "asset" : {"generator" : "Aspose.3D 22.1", "version" : "2.0"}, "buffers" : [{"uri" : "data:application/octet-stream;base64,", "byteLength" : 93236}], "bufferViews" : [{"buffer" : 0, "byteOffset" : 0, "byteLength" : 5484, "target" : 34963}, {"buffer" : 0, "byteOffset" : 5488, "byteLength" : 87744, "byteStride" : 32, "target" : 34962}], "materials" : [{"name" : "", "pbrMetallicRoughness" : {"baseColorFactor" : [0.5, 0.5, 0.5, 1], "metallicFactor" : 0, "roughnessFactor" : 0}, "emissiveFactor" : [0, 0, 0], "alphaMode" : "OPAQUE", "doubleSided" : false}], "meshes" : [{"primitives" : [{"attributes" : {"POSITION" : 1, "NORMAL" : 2, "TEXCOORD_0" : 3}, "indices" : 0, "material" : 0, "mode" : 4}], "name" : ""}], "nodes" : [{"mesh" : 0, "name" : "BAR01_pCylinder275"}], "scene" : 0, "scenes" : [{"nodes" : [0]}]}