{"accessors" : [{"bufferView" : 0, "byteOffset" : 0, "componentType" : 5123, "count" : 37152, "type" : "SCALAR", "max" : [37151], "min" : [0]}, {"bufferView" : 1, "byteOffset" : 0, "componentType" : 5126, "count" : 37152, "type" : "VEC3", "max" : [1.323338508605957, 1.5720407962799072, 1.3089323043823242], "min" : [-1.323338508605957, -1.5720406770706177, -1.3089323043823242], "name" : "POSITION"}, {"bufferView" : 1, "byteOffset" : 12, "componentType" : 5126, "count" : 37152, "type" : "VEC3", "max" : [0.9999982714653015, 1.0000044107437134, 1.0000042915344238], "min" : [-0.9999982714653015, -1.0000044107437134, -0.9999911785125732], "name" : "NORMAL"}, {"bufferView" : 1, "byteOffset" : 24, "componentType" : 5126, "count" : 37152, "type" : "VEC2", "max" : [0.990234375, -0.009765625], "min" : [0.009765625, -0.9734447598457336], "name" : "TEXCOORD_0"}], "asset" : {"generator" : "Aspose.3D 22.1", "version" : "2.0"}, "buffers" : [{"uri" : "data:application/octet-stream;base64,", "byteLength" : 1263176}], "bufferViews" : [{"buffer" : 0, "byteOffset" : 0, "byteLength" : 74304, "target" : 34963}, {"buffer" : 0, "byteOffset" : 74308, "byteLength" : 1188864, "byteStride" : 32, "target" : 34962}], "materials" : [{"name" : "", "pbrMetallicRoughness" : {"baseColorFactor" : [0.5, 0.5, 0.5, 1], "metallicFactor" : 0, "roughnessFactor" : 0}, "emissiveFactor" : [0, 0, 0], "alphaMode" : "OPAQUE", "doubleSided" : false}], "meshes" : [{"primitives" : [{"attributes" : {"POSITION" : 1, "NORMAL" : 2, "TEXCOORD_0" : 3}, "indices" : 0, "material" : 0, "mode" : 4}], "name" : ""}], "nodes" : [{"mesh" : 0, "name" : "BAR01_pasted__polySurface84"}], "scene" : 0, "scenes" : [{"nodes" : [0]}]}