{"accessors" : [{"bufferView" : 0, "byteOffset" : 0, "componentType" : 5123, "count" : 4668, "type" : "SCALAR", "max" : [4667], "min" : [0]}, {"bufferView" : 1, "byteOffset" : 0, "componentType" : 5126, "count" : 4668, "type" : "VEC3", "max" : [18.044517517089844, 13.007843017578125, 14.01070785522461], "min" : [12.658111572265625, -1.333145022392273, 3.4692366123199463], "name" : "POSITION"}, {"bufferView" : 1, "byteOffset" : 12, "componentType" : 5126, "count" : 4668, "type" : "VEC3", "max" : [1.0000044107437134, 1.0000044107437134, 1.0000044107437134], "min" : [-1.0000044107437134, -1.0000044107437134, -1.0000044107437134], "name" : "NORMAL"}, {"bufferView" : 1, "byteOffset" : 24, "componentType" : 5126, "count" : 4668, "type" : "VEC2", "max" : [0.990234375, -0.009765625], "min" : [0.009765625, -0.8166651129722595], "name" : "TEXCOORD_0"}], "asset" : {"generator" : "Aspose.3D 22.1", "version" : "2.0"}, "buffers" : [{"uri" : "data:application/octet-stream;base64,", "byteLength" : 158720}], "bufferViews" : [{"buffer" : 0, "byteOffset" : 0, "byteLength" : 9336, "target" : 34963}, {"buffer" : 0, "byteOffset" : 9340, "byteLength" : 149376, "byteStride" : 32, "target" : 34962}], "materials" : [{"name" : "", "pbrMetallicRoughness" : {"baseColorFactor" : [0.5, 0.5, 0.5, 1], "metallicFactor" : 0, "roughnessFactor" : 0}, "emissiveFactor" : [0, 0, 0], "alphaMode" : "OPAQUE", "doubleSided" : false}], "meshes" : [{"primitives" : [{"attributes" : {"POSITION" : 1, "NORMAL" : 2, "TEXCOORD_0" : 3}, "indices" : 0, "material" : 0, "mode" : 4}], "name" : ""}], "nodes" : [{"mesh" : 0, "name" : "polySurface100"}], "scene" : 0, "scenes" : [{"nodes" : [0]}]}