{"accessors" : [{"bufferView" : 0, "byteOffset" : 0, "componentType" : 5123, "count" : 396, "type" : "SCALAR", "max" : [395], "min" : [0]}, {"bufferView" : 1, "byteOffset" : 0, "componentType" : 5126, "count" : 396, "type" : "VEC3", "max" : [-26.850658416748047, -1.0959941148757935, 47.63791275024414], "min" : [-37.581058502197266, -1.3038921356201172, 41.35648727416992], "name" : "POSITION"}, {"bufferView" : 1, "byteOffset" : 12, "componentType" : 5126, "count" : 396, "type" : "VEC3", "max" : [1.0000044107437134, 1.0000044107437134, 1.0000044107437134], "min" : [-1.0000044107437134, 0, -1.0000044107437134], "name" : "NORMAL"}, {"bufferView" : 1, "byteOffset" : 24, "componentType" : 5126, "count" : 396, "type" : "VEC2", "max" : [0.37634414434432983, -0.015292346477508545], "min" : [0.01952338218688965, -0.22969108819961548], "name" : "TEXCOORD_0"}, {"bufferView" : 0, "byteOffset" : 792, "componentType" : 5123, "count" : 1134, "type" : "SCALAR", "max" : [1133], "min" : [0]}, {"bufferView" : 2, "byteOffset" : 0, "componentType" : 5126, "count" : 1134, "type" : "VEC3", "max" : [-29.532983779907227, 1.1281211376190186, 42.71339797973633], "min" : [-29.65601921081543, 0.9220650792121887, 41.886474609375], "name" : "POSITION"}, {"bufferView" : 2, "byteOffset" : 12, "componentType" : 5126, "count" : 1134, "type" : "VEC3", "max" : [1.0000044107437134, 1.0000044107437134, 0.9997466206550598], "min" : [-1.0000044107437134, -1.0000044107437134, -0.8343496322631836], "name" : "NORMAL"}, {"bufferView" : 2, "byteOffset" : 24, "componentType" : 5126, "count" : 1134, "type" : "VEC2", "max" : [0.3349628448486328, -0.5073701739311218], "min" : [0.226459801197052, -0.6354498863220215], "name" : "TEXCOORD_0"}, {"bufferView" : 0, "byteOffset" : 3060, "componentType" : 5123, "count" : 1122, "type" : "SCALAR", "max" : [1121], "min" : [0]}, {"bufferView" : 3, "byteOffset" : 0, "componentType" : 5126, "count" : 1122, "type" : "VEC3", "max" : [-29.529844284057617, 1.358385682106018, 42.49972152709961], "min" : [-29.659151077270508, 1.188762903213501, 42.33873748779297], "name" : "POSITION"}, {"bufferView" : 3, "byteOffset" : 12, "componentType" : 5126, "count" : 1122, "type" : "VEC3", "max" : [0.9908229112625122, 0.9703642129898071, 0.9998253583908081], "min" : [-0.9908968806266785, -0.9954016804695129, -0.9558504819869995], "name" : "NORMAL"}, {"bufferView" : 3, "byteOffset" : 24, "componentType" : 5126, "count" : 1122, "type" : "VEC2", "max" : [0.7589559555053711, -0.5998224020004272], "min" : [0.36081022024154663, -0.6313623189926147], "name" : "TEXCOORD_0"}, {"bufferView" : 0, "byteOffset" : 5304, "componentType" : 5123, "count" : 120, "type" : "SCALAR", "max" : [98], "min" : [0]}, {"bufferView" : 4, "byteOffset" : 0, "componentType" : 5126, "count" : 99, "type" : "VEC3", "max" : [-29.576303482055664, 1.2203290462493896, 42.39058303833008], "min" : [-29.612703323364258, 1.1020517349243164, 42.29318618774414], "name" : "POSITION"}, {"bufferView" : 4, "byteOffset" : 12, "componentType" : 5126, "count" : 99, "type" : "VEC3", "max" : [0.9999997019767761, 0.5800157189369202, 0.8146107196807861], "min" : [-0.9999986886978149, -0.5800157189369202, -0.8146107196807861], "name" : "NORMAL"}, {"bufferView" : 4, "byteOffset" : 24, "componentType" : 5126, "count" : 99, "type" : "VEC2", "max" : [0.7591462731361389, -0.5793056488037109], "min" : [0.7508597373962402, -0.5879594087600708], "name" : "TEXCOORD_0"}, {"bufferView" : 0, "byteOffset" : 5544, "componentType" : 5123, "count" : 2442, "type" : "SCALAR", "max" : [2441], "min" : [0]}, {"bufferView" : 5, "byteOffset" : 0, "componentType" : 5126, "count" : 2442, "type" : "VEC3", "max" : [-29.358976364135742, 10.908195495605469, 44.3647575378418], "min" : [-29.898832321166992, -1.1047204732894897, 41.54214096069336], "name" : "POSITION"}, {"bufferView" : 5, "byteOffset" : 12, "componentType" : 5126, "count" : 2442, "type" : "VEC3", "max" : [1.0000044107437134, 1.0000044107437134, 1.0000044107437134], "min" : [-1.0000044107437134, -1.0000044107437134, -1.0000044107437134], "name" : "NORMAL"}, {"bufferView" : 5, "byteOffset" : 24, "componentType" : 5126, "count" : 2442, "type" : "VEC2", "max" : [0.9894722700119019, -0.009765625], "min" : [0.08751410245895386, -0.990234375], "name" : "TEXCOORD_0"}, {"bufferView" : 0, "byteOffset" : 10428, "componentType" : 5123, "count" : 2442, "type" : "SCALAR", "max" : [2441], "min" : [0]}, {"bufferView" : 6, "byteOffset" : 0, "componentType" : 5126, "count" : 2442, "type" : "VEC3", "max" : [-29.358976364135742, 10.908195495605469, 44.3647575378418], "min" : [-29.898832321166992, -1.1047204732894897, 41.54214096069336], "name" : "POSITION"}, {"bufferView" : 6, "byteOffset" : 12, "componentType" : 5126, "count" : 2442, "type" : "VEC3", "max" : [1.0000044107437134, 1.0000044107437134, 1.0000044107437134], "min" : [-1.0000044107437134, -1.0000044107437134, -1.0000044107437134], "name" : "NORMAL"}, {"bufferView" : 6, "byteOffset" : 24, "componentType" : 5126, "count" : 2442, "type" : "VEC2", "max" : [0.9891819357872009, -0.009765749797224998], "min" : [0.008076444268226624, -0.9637734889984131], "name" : "TEXCOORD_0"}, {"bufferView" : 0, "byteOffset" : 15312, "componentType" : 5123, "count" : 1122, "type" : "SCALAR", "max" : [1121], "min" : [0]}, {"bufferView" : 7, "byteOffset" : 0, "componentType" : 5126, "count" : 1122, "type" : "VEC3", "max" : [-29.529844284057617, 1.358385682106018, 42.49972152709961], "min" : [-29.659151077270508, 1.188762903213501, 42.33873748779297], "name" : "POSITION"}, {"bufferView" : 7, "byteOffset" : 12, "componentType" : 5126, "count" : 1122, "type" : "VEC3", "max" : [0.9908229112625122, 0.9703642129898071, 0.9998253583908081], "min" : [-0.9908968806266785, -0.9954016804695129, -0.9558504819869995], "name" : "NORMAL"}, {"bufferView" : 7, "byteOffset" : 24, "componentType" : 5126, "count" : 1122, "type" : "VEC2", "max" : [0.7286186814308167, -0.5998252630233765], "min" : [0.46286338567733765, -0.7847116589546204], "name" : "TEXCOORD_0"}, {"bufferView" : 0, "byteOffset" : 17556, "componentType" : 5123, "count" : 120, "type" : "SCALAR", "max" : [98], "min" : [0]}, {"bufferView" : 8, "byteOffset" : 0, "componentType" : 5126, "count" : 99, "type" : "VEC3", "max" : [-29.576303482055664, 1.2203290462493896, 42.39058303833008], "min" : [-29.612703323364258, 1.1020517349243164, 42.29318618774414], "name" : "POSITION"}, {"bufferView" : 8, "byteOffset" : 12, "componentType" : 5126, "count" : 99, "type" : "VEC3", "max" : [0.9999997019767761, 0.5800157189369202, 0.8146107196807861], "min" : [-0.9999986886978149, -0.5800157189369202, -0.8146107196807861], "name" : "NORMAL"}, {"bufferView" : 8, "byteOffset" : 24, "componentType" : 5126, "count" : 99, "type" : "VEC2", "max" : [0.10906367003917694, -0.5902876257896423], "min" : [0.10077718645334244, -0.5989413857460022], "name" : "TEXCOORD_0"}, {"bufferView" : 0, "byteOffset" : 17796, "componentType" : 5123, "count" : 1134, "type" : "SCALAR", "max" : [1133], "min" : [0]}, {"bufferView" : 9, "byteOffset" : 0, "componentType" : 5126, "count" : 1134, "type" : "VEC3", "max" : [-29.532983779907227, 1.1281211376190186, 42.71339797973633], "min" : [-29.65601921081543, 0.9220650792121887, 41.886474609375], "name" : "POSITION"}, {"bufferView" : 9, "byteOffset" : 12, "componentType" : 5126, "count" : 1134, "type" : "VEC3", "max" : [1.0000044107437134, 1.0000044107437134, 0.9997466206550598], "min" : [-1.0000044107437134, -1.0000044107437134, -0.8343496322631836], "name" : "NORMAL"}, {"bufferView" : 9, "byteOffset" : 24, "componentType" : 5126, "count" : 1134, "type" : "VEC2", "max" : [0.6296669840812683, -0.5073717832565308], "min" : [0.17011933028697968, -0.763740062713623], "name" : "TEXCOORD_0"}, {"bufferView" : 0, "byteOffset" : 20064, "componentType" : 5123, "count" : 1128, "type" : "SCALAR", "max" : [1127], "min" : [0]}, {"bufferView" : 10, "byteOffset" : 0, "componentType" : 5126, "count" : 1128, "type" : "VEC3", "max" : [-32.31087875366211, 4.485647201538086, 41.75568771362305], "min" : [-32.598472595214844, -1.3248956203460693, 41.468082427978516], "name" : "POSITION"}, {"bufferView" : 10, "byteOffset" : 12, "componentType" : 5126, "count" : 1128, "type" : "VEC3", "max" : [1.0000044107437134, 1.0000044107437134, 1.0000044107437134], "min" : [-1.0000044107437134, -1.0000044107437134, -1.0000044107437134], "name" : "NORMAL"}, {"bufferView" : 10, "byteOffset" : 24, "componentType" : 5126, "count" : 1128, "type" : "VEC2", "max" : [0.988808810710907, -0.009765745140612125], "min" : [0.1048496812582016, -0.8792899250984192], "name" : "TEXCOORD_0"}, {"bufferView" : 0, "byteOffset" : 22320, "componentType" : 5123, "count" : 36, "type" : "SCALAR", "max" : [35], "min" : [0]}, {"bufferView" : 11, "byteOffset" : 0, "componentType" : 5126, "count" : 36, "type" : "VEC3", "max" : [-31.954662322998047, 4.5625224113464355, 41.74966812133789], "min" : [-32.95466232299805, 3.084467649459839, 41.682762145996094], "name" : "POSITION"}, {"bufferView" : 11, "byteOffset" : 12, "componentType" : 5126, "count" : 36, "type" : "VEC3", "max" : [1.0000044107437134, 1.0000044107437134, 1.0000044107437134], "min" : [-1.0000044107437134, -1.0000044107437134, -1.0000044107437134], "name" : "NORMAL"}, {"bufferView" : 11, "byteOffset" : 24, "componentType" : 5126, "count" : 36, "type" : "VEC2", "max" : [0.6128082275390625, -0.022111207246780396], "min" : [0.38212305307388306, -0.6506685018539429], "name" : "TEXCOORD_0"}, {"bufferView" : 0, "byteOffset" : 22392, "componentType" : 5123, "count" : 300, "type" : "SCALAR", "max" : [299], "min" : [0]}, {"bufferView" : 12, "byteOffset" : 0, "componentType" : 5126, "count" : 300, "type" : "VEC3", "max" : [-32.09305953979492, 4.325640678405762, 41.68782424926758], "min" : [-32.81453323364258, 4.187108993530273, 41.53038787841797], "name" : "POSITION"}, {"bufferView" : 12, "byteOffset" : 12, "componentType" : 5126, "count" : 300, "type" : "VEC3", "max" : [0.9999430179595947, 1.0000044107437134, 0.9999417662620544], "min" : [-0.9999395608901978, -1.0000044107437134, -0.9999603033065796], "name" : "NORMAL"}, {"bufferView" : 12, "byteOffset" : 24, "componentType" : 5126, "count" : 300, "type" : "VEC2", "max" : [0.7417808175086975, -0.507376492023468], "min" : [0.21345816552639008, -0.7844781875610352], "name" : "TEXCOORD_0"}, {"bufferView" : 0, "byteOffset" : 22992, "componentType" : 5123, "count" : 300, "type" : "SCALAR", "max" : [299], "min" : [0]}, {"bufferView" : 13, "byteOffset" : 0, "componentType" : 5126, "count" : 300, "type" : "VEC3", "max" : [-32.09305953979492, 4.325640678405762, 41.68782424926758], "min" : [-32.81453323364258, 4.187108993530273, 41.53038787841797], "name" : "POSITION"}, {"bufferView" : 13, "byteOffset" : 12, "componentType" : 5126, "count" : 300, "type" : "VEC3", "max" : [0.9999430179595947, 1.0000044107437134, 0.9999417662620544], "min" : [-0.9999395608901978, -1.0000044107437134, -0.9999603033065796], "name" : "NORMAL"}, {"bufferView" : 13, "byteOffset" : 24, "componentType" : 5126, "count" : 300, "type" : "VEC2", "max" : [0.7465249300003052, -0.54731285572052], "min" : [0.14411602914333344, -0.7890518307685852], "name" : "TEXCOORD_0"}, {"bufferView" : 0, "byteOffset" : 23592, "componentType" : 5123, "count" : 165, "type" : "SCALAR", "max" : [164], "min" : [0]}, {"bufferView" : 14, "byteOffset" : 0, "componentType" : 5126, "count" : 165, "type" : "VEC3", "max" : [5.706015586853027, 3.218337059020996, 42.18986892700195], "min" : [5.443747043609619, 2.967550277709961, 41.99768829345703], "name" : "POSITION"}, {"bufferView" : 14, "byteOffset" : 12, "componentType" : 5126, "count" : 165, "type" : "VEC3", "max" : [0.9560920596122742, 0.8187286853790283, 1.0000044107437134], "min" : [-0.9457708597183228, -0.9998650550842285, -1.0000044107437134], "name" : "NORMAL"}, {"bufferView" : 14, "byteOffset" : 24, "componentType" : 5126, "count" : 165, "type" : "VEC2", "max" : [0.6353265643119812, -0.5702663064002991], "min" : [0.10077718645334244, -0.6302491426467896], "name" : "TEXCOORD_0"}, {"bufferView" : 0, "byteOffset" : 23924, "componentType" : 5123, "count" : 165, "type" : "SCALAR", "max" : [164], "min" : [0]}, {"bufferView" : 15, "byteOffset" : 0, "componentType" : 5126, "count" : 165, "type" : "VEC3", "max" : [5.706015586853027, 3.218337059020996, 42.18986892700195], "min" : [5.443747043609619, 2.967550277709961, 41.99768829345703], "name" : "POSITION"}, {"bufferView" : 15, "byteOffset" : 12, "componentType" : 5126, "count" : 165, "type" : "VEC3", "max" : [0.9560920596122742, 0.8187286853790283, 1.0000044107437134], "min" : [-0.9457708597183228, -0.9998650550842285, -1.0000044107437134], "name" : "NORMAL"}, {"bufferView" : 15, "byteOffset" : 24, "componentType" : 5126, "count" : 165, "type" : "VEC2", "max" : [0.7923930883407593, -0.5780941247940063], "min" : [0.13518685102462769, -0.8803401589393616], "name" : "TEXCOORD_0"}], "asset" : {"generator" : "Aspose.3D 22.1", "version" : "2.0"}, "buffers" : [{"uri" : "data:application/octet-stream;base64,", "byteLength" : 412352}], "bufferViews" : [{"buffer" : 0, "byteOffset" : 0, "byteLength" : 24256, "target" : 34963}, {"buffer" : 0, "byteOffset" : 24260, "byteLength" : 12672, "byteStride" : 32, "target" : 34962}, {"buffer" : 0, "byteOffset" : 36936, "byteLength" : 36288, "byteStride" : 32, "target" : 34962}, {"buffer" : 0, "byteOffset" : 73228, "byteLength" : 35904, "byteStride" : 32, "target" : 34962}, {"buffer" : 0, "byteOffset" : 109136, "byteLength" : 3840, "byteStride" : 32, "target" : 34962}, {"buffer" : 0, "byteOffset" : 112980, "byteLength" : 78144, "byteStride" : 32, "target" : 34962}, {"buffer" : 0, "byteOffset" : 191128, "byteLength" : 78144, "byteStride" : 32, "target" : 34962}, {"buffer" : 0, "byteOffset" : 269276, "byteLength" : 35904, "byteStride" : 32, "target" : 34962}, {"buffer" : 0, "byteOffset" : 305184, "byteLength" : 3840, "byteStride" : 32, "target" : 34962}, {"buffer" : 0, "byteOffset" : 309028, "byteLength" : 36288, "byteStride" : 32, "target" : 34962}, {"buffer" : 0, "byteOffset" : 345320, "byteLength" : 36096, "byteStride" : 32, "target" : 34962}, {"buffer" : 0, "byteOffset" : 381420, "byteLength" : 1152, "byteStride" : 32, "target" : 34962}, {"buffer" : 0, "byteOffset" : 382576, "byteLength" : 9600, "byteStride" : 32, "target" : 34962}, {"buffer" : 0, "byteOffset" : 392180, "byteLength" : 9600, "byteStride" : 32, "target" : 34962}, {"buffer" : 0, "byteOffset" : 401784, "byteLength" : 5280, "byteStride" : 32, "target" : 34962}, {"buffer" : 0, "byteOffset" : 407068, "byteLength" : 5280, "byteStride" : 32, "target" : 34962}], "materials" : [{"name" : "", "pbrMetallicRoughness" : {"baseColorFactor" : [0.5, 0.5, 0.5, 1], "metallicFactor" : 0, "roughnessFactor" : 0}, "emissiveFactor" : [0, 0, 0], "alphaMode" : "OPAQUE", "doubleSided" : false}, {"name" : "", "pbrMetallicRoughness" : {"baseColorFactor" : [0.5, 0.5, 0.5, 1], "metallicFactor" : 0, "roughnessFactor" : 0}, "emissiveFactor" : [0, 0, 0], "alphaMode" : "OPAQUE", "doubleSided" : false}, {"name" : "", "pbrMetallicRoughness" : {"baseColorFactor" : [0.5, 0.5, 0.5, 1], "metallicFactor" : 0, "roughnessFactor" : 0}, "emissiveFactor" : [0, 0, 0], "alphaMode" : "OPAQUE", "doubleSided" : false}, {"name" : "", "pbrMetallicRoughness" : {"baseColorFactor" : [0.5, 0.5, 0.5, 1], "metallicFactor" : 0, "roughnessFactor" : 0}, "emissiveFactor" : [0, 0, 0], "alphaMode" : "OPAQUE", "doubleSided" : false}, {"name" : "", "pbrMetallicRoughness" : {"baseColorFactor" : [0.5, 0.5, 0.5, 1], "metallicFactor" : 0, "roughnessFactor" : 0}, "emissiveFactor" : [0, 0, 0], "alphaMode" : "OPAQUE", "doubleSided" : false}, {"name" : "", "pbrMetallicRoughness" : {"baseColorFactor" : [0.5, 0.5, 0.5, 1], "metallicFactor" : 0, "roughnessFactor" : 0}, "emissiveFactor" : [0, 0, 0], "alphaMode" : "OPAQUE", "doubleSided" : false}, {"name" : "", "pbrMetallicRoughness" : {"baseColorFactor" : [0.5, 0.5, 0.5, 1], "metallicFactor" : 0, "roughnessFactor" : 0}, "emissiveFactor" : [0, 0, 0], "alphaMode" : "OPAQUE", "doubleSided" : false}, {"name" : "", "pbrMetallicRoughness" : {"baseColorFactor" : [0.5, 0.5, 0.5, 1], "metallicFactor" : 0, "roughnessFactor" : 0}, "emissiveFactor" : [0, 0, 0], "alphaMode" : "OPAQUE", "doubleSided" : false}, {"name" : "", "pbrMetallicRoughness" : {"baseColorFactor" : [0.5, 0.5, 0.5, 1], "metallicFactor" : 0, "roughnessFactor" : 0}, "emissiveFactor" : [0, 0, 0], "alphaMode" : "OPAQUE", "doubleSided" : false}, {"name" : "", "pbrMetallicRoughness" : {"baseColorFactor" : [0.5, 0.5, 0.5, 1], "metallicFactor" : 0, "roughnessFactor" : 0}, "emissiveFactor" : [0, 0, 0], "alphaMode" : "OPAQUE", "doubleSided" : false}, {"name" : "", "pbrMetallicRoughness" : {"baseColorFactor" : [0.5, 0.5, 0.5, 1], "metallicFactor" : 0, "roughnessFactor" : 0}, "emissiveFactor" : [0, 0, 0], "alphaMode" : "OPAQUE", "doubleSided" : false}, {"name" : "", "pbrMetallicRoughness" : {"baseColorFactor" : [0.5, 0.5, 0.5, 1], "metallicFactor" : 0, "roughnessFactor" : 0}, "emissiveFactor" : [0, 0, 0], "alphaMode" : "OPAQUE", "doubleSided" : false}, {"name" : "", "pbrMetallicRoughness" : {"baseColorFactor" : [0.5, 0.5, 0.5, 1], "metallicFactor" : 0, "roughnessFactor" : 0}, "emissiveFactor" : [0, 0, 0], "alphaMode" : "OPAQUE", "doubleSided" : false}, {"name" : "", "pbrMetallicRoughness" : {"baseColorFactor" : [0.5, 0.5, 0.5, 1], "metallicFactor" : 0, "roughnessFactor" : 0}, "emissiveFactor" : [0, 0, 0], "alphaMode" : "OPAQUE", "doubleSided" : false}, {"name" : "", "pbrMetallicRoughness" : {"baseColorFactor" : [0.5, 0.5, 0.5, 1], "metallicFactor" : 0, "roughnessFactor" : 0}, "emissiveFactor" : [0, 0, 0], "alphaMode" : "OPAQUE", "doubleSided" : false}], "meshes" : [{"primitives" : [{"attributes" : {"POSITION" : 1, "NORMAL" : 2, "TEXCOORD_0" : 3}, "indices" : 0, "material" : 0, "mode" : 4}], "name" : ""}, {"primitives" : [{"attributes" : {"POSITION" : 5, "NORMAL" : 6, "TEXCOORD_0" : 7}, "indices" : 4, "material" : 1, "mode" : 4}], "name" : ""}, {"primitives" : [{"attributes" : {"POSITION" : 9, "NORMAL" : 10, "TEXCOORD_0" : 11}, "indices" : 8, "material" : 2, "mode" : 4}], "name" : ""}, {"primitives" : [{"attributes" : {"POSITION" : 13, "NORMAL" : 14, "TEXCOORD_0" : 15}, "indices" : 12, "material" : 3, "mode" : 4}], "name" : ""}, {"primitives" : [{"attributes" : {"POSITION" : 17, "NORMAL" : 18, "TEXCOORD_0" : 19}, "indices" : 16, "material" : 4, "mode" : 4}], "name" : ""}, {"primitives" : [{"attributes" : {"POSITION" : 21, "NORMAL" : 22, "TEXCOORD_0" : 23}, "indices" : 20, "material" : 5, "mode" : 4}], "name" : ""}, {"primitives" : [{"attributes" : {"POSITION" : 25, "NORMAL" : 26, "TEXCOORD_0" : 27}, "indices" : 24, "material" : 6, "mode" : 4}], "name" : ""}, {"primitives" : [{"attributes" : {"POSITION" : 29, "NORMAL" : 30, "TEXCOORD_0" : 31}, "indices" : 28, "material" : 7, "mode" : 4}], "name" : ""}, {"primitives" : [{"attributes" : {"POSITION" : 33, "NORMAL" : 34, "TEXCOORD_0" : 35}, "indices" : 32, "material" : 8, "mode" : 4}], "name" : ""}, {"primitives" : [{"attributes" : {"POSITION" : 37, "NORMAL" : 38, "TEXCOORD_0" : 39}, "indices" : 36, "material" : 9, "mode" : 4}], "name" : ""}, {"primitives" : [{"attributes" : {"POSITION" : 41, "NORMAL" : 42, "TEXCOORD_0" : 43}, "indices" : 40, "material" : 10, "mode" : 4}], "name" : ""}, {"primitives" : [{"attributes" : {"POSITION" : 45, "NORMAL" : 46, "TEXCOORD_0" : 47}, "indices" : 44, "material" : 11, "mode" : 4}], "name" : ""}, {"primitives" : [{"attributes" : {"POSITION" : 49, "NORMAL" : 50, "TEXCOORD_0" : 51}, "indices" : 48, "material" : 12, "mode" : 4}], "name" : ""}, {"primitives" : [{"attributes" : {"POSITION" : 53, "NORMAL" : 54, "TEXCOORD_0" : 55}, "indices" : 52, "material" : 13, "mode" : 4}], "name" : ""}, {"primitives" : [{"attributes" : {"POSITION" : 57, "NORMAL" : 58, "TEXCOORD_0" : 59}, "indices" : 56, "material" : 14, "mode" : 4}], "name" : ""}], "nodes" : [{"mesh" : 0, "name" : "pCube845"}, {"mesh" : 1, "name" : "pCylinder324"}, {"mesh" : 2, "name" : "pCylinder326"}, {"mesh" : 3, "name" : "pCylinder327"}, {"mesh" : 4, "name" : "pCylinder323"}, {"matrix" : [1, 0, 0, 0, 0, 1, 0, 0, 0, 0, 1, 0, -5.2930712915922555, 0, 0, 1], "mesh" : 5, "name" : "pCylinder358"}, {"matrix" : [1, 0, 0, 0, 0, 1, 0, 0, 0, 0, 1, 0, -5.293137589986323, 0, 0, 1], "mesh" : 6, "name" : "pCylinder359"}, {"matrix" : [1, 0, 0, 0, 0, 1, 0, 0, 0, 0, 1, 0, -5.293137589986323, 0, 0, 1], "mesh" : 7, "name" : "pCylinder360"}, {"matrix" : [1, 0, 0, 0, 0, 1, 0, 0, 0, 0, 1, 0, -5.293137589986323, 0, 0, 1], "mesh" : 8, "name" : "pCylinder361"}, {"children" : [1, 2, 3, 4, 5, 6, 7, 8], "name" : "DUCHA1"}, {"mesh" : 9, "name" : "pCylinder320"}, {"mesh" : 10, "name" : "pCube364"}, {"mesh" : 11, "name" : "pCylinder322"}, {"matrix" : [1, 0, 0, 0, 0, 1, 0, 0, 0, 0, 1, 0, 0, -0.7301749962919577, 0, 1], "mesh" : 12, "name" : "pCylinder362"}, {"children" : [10, 11, 12, 13], "name" : "SEAL1"}, {"matrix" : [0.7669560806228117, 0, 0, 0, 0, 0.7669560806228117, 0, 0, 0, 0, 0.7669560806228117, 0, -33.87090323021687, 0.7207917148887497, 9.809699148723531, 1], "mesh" : 13, "name" : "pCylinder363"}, {"matrix" : [0.7669560806228117, 0, 0, 0, 0, 0.7669560806228117, 0, 0, 0, 0, 0.7669560806228117, 0, -39.15217235565737, 0.7207917148887497, 9.809699148723531, 1], "mesh" : 14, "name" : "pCylinder364"}, {"children" : [0, 9, 14, 15, 16], "matrix" : [1, 0, 0, 0, 0, 1, 0, 0, 0, 0, 1, 0, 35.17009542198103, 0, 0, 1], "name" : "DUCHA_TODO"}], "scene" : 0, "scenes" : [{"nodes" : [17]}]}