{"accessors" : [{"bufferView" : 0, "byteOffset" : 0, "componentType" : 5123, "count" : 12126, "type" : "SCALAR", "max" : [12125], "min" : [0]}, {"bufferView" : 1, "byteOffset" : 0, "componentType" : 5126, "count" : 12126, "type" : "VEC3", "max" : [8.319435119628906, 10.908195495605469, 47.63791275024414], "min" : [-2.4109649658203125, -1.3248956203460693, 41.35648727416992], "name" : "POSITION"}, {"bufferView" : 1, "byteOffset" : 12, "componentType" : 5126, "count" : 12126, "type" : "VEC3", "max" : [1.0000044107437134, 1.0000044107437134, 1.0000044107437134], "min" : [-1.0000044107437134, -1.0000044107437134, -1.0000044107437134], "name" : "NORMAL"}, {"bufferView" : 1, "byteOffset" : 24, "componentType" : 5126, "count" : 12126, "type" : "VEC2", "max" : [0.9894722700119019, -0.009765625], "min" : [0.008076444268226624, -0.990234375], "name" : "TEXCOORD_0"}], "asset" : {"generator" : "Aspose.3D 22.1", "version" : "2.0"}, "buffers" : [{"uri" : "data:application/octet-stream;base64,", "byteLength" : 412292}], "bufferViews" : [{"buffer" : 0, "byteOffset" : 0, "byteLength" : 24252, "target" : 34963}, {"buffer" : 0, "byteOffset" : 24256, "byteLength" : 388032, "byteStride" : 32, "target" : 34962}], "materials" : [{"name" : "", "pbrMetallicRoughness" : {"baseColorFactor" : [0.5, 0.5, 0.5, 1], "metallicFactor" : 0, "roughnessFactor" : 0}, "emissiveFactor" : [0, 0, 0], "alphaMode" : "OPAQUE", "doubleSided" : false}], "meshes" : [{"primitives" : [{"attributes" : {"POSITION" : 1, "NORMAL" : 2, "TEXCOORD_0" : 3}, "indices" : 0, "material" : 0, "mode" : 4}], "name" : ""}], "nodes" : [{"mesh" : 0, "name" : "pCylinder320"}], "scene" : 0, "scenes" : [{"nodes" : [0]}]}