{"accessors" : [{"bufferView" : 0, "byteOffset" : 0, "componentType" : 5123, "count" : 5193, "type" : "SCALAR", "max" : [5192], "min" : [0]}, {"bufferView" : 1, "byteOffset" : 0, "componentType" : 5126, "count" : 5193, "type" : "VEC3", "max" : [-13.623956680297852, 17.879100799560547, -13.689117431640625], "min" : [-15.448728561401367, 0.4340667724609375, -21.006162643432617], "name" : "POSITION"}, {"bufferView" : 1, "byteOffset" : 12, "componentType" : 5126, "count" : 5193, "type" : "VEC3", "max" : [1.0000044107437134, 1.0000044107437134, 1.0000044107437134], "min" : [-1.0000044107437134, -1.0000044107437134, -0.9987836480140686], "name" : "NORMAL"}, {"bufferView" : 1, "byteOffset" : 24, "componentType" : 5126, "count" : 5193, "type" : "VEC2", "max" : [0.6665744185447693, -0.009767777286469936], "min" : [0.009765625, -0.8087529540061951], "name" : "TEXCOORD_0"}], "asset" : {"generator" : "Aspose.3D 22.1", "version" : "2.0"}, "buffers" : [{"uri" : "data:application/octet-stream;base64,", "byteLength" : 176572}], "bufferViews" : [{"buffer" : 0, "byteOffset" : 0, "byteLength" : 10388, "target" : 34963}, {"buffer" : 0, "byteOffset" : 10392, "byteLength" : 166176, "byteStride" : 32, "target" : 34962}], "materials" : [{"name" : "", "pbrMetallicRoughness" : {"baseColorFactor" : [0.5, 0.5, 0.5, 1], "metallicFactor" : 0, "roughnessFactor" : 0}, "emissiveFactor" : [0, 0, 0], "alphaMode" : "OPAQUE", "doubleSided" : false}], "meshes" : [{"primitives" : [{"attributes" : {"POSITION" : 1, "NORMAL" : 2, "TEXCOORD_0" : 3}, "indices" : 0, "material" : 0, "mode" : 4}], "name" : ""}], "nodes" : [{"mesh" : 0, "name" : "pCube280"}], "scene" : 0, "scenes" : [{"nodes" : [0]}]}