{"accessors" : [{"bufferView" : 0, "byteOffset" : 0, "componentType" : 5123, "count" : 8091, "type" : "SCALAR", "max" : [8090], "min" : [0]}, {"bufferView" : 1, "byteOffset" : 0, "componentType" : 5126, "count" : 8091, "type" : "VEC3", "max" : [-7.5781402587890625, 5.575285911560059, 42.2249641418457], "min" : [-10.827789306640625, 2.121823310852051, 41.40658950805664], "name" : "POSITION"}, {"bufferView" : 1, "byteOffset" : 12, "componentType" : 5126, "count" : 8091, "type" : "VEC3", "max" : [1.0000044107437134, 1.0000044107437134, 1.0000044107437134], "min" : [-1.0000044107437134, -0.9999794960021973, -1.0000044107437134], "name" : "NORMAL"}, {"bufferView" : 1, "byteOffset" : 24, "componentType" : 5126, "count" : 8091, "type" : "VEC2", "max" : [0.990234375, -0.009765625], "min" : [0.038340821862220764, -0.9744749665260315], "name" : "TEXCOORD_0"}], "asset" : {"generator" : "Aspose.3D 22.1", "version" : "2.0"}, "buffers" : [{"uri" : "data:application/octet-stream;base64,", "byteLength" : 275104}], "bufferViews" : [{"buffer" : 0, "byteOffset" : 0, "byteLength" : 16184, "target" : 34963}, {"buffer" : 0, "byteOffset" : 16188, "byteLength" : 258912, "byteStride" : 32, "target" : 34962}], "materials" : [{"name" : "", "pbrMetallicRoughness" : {"baseColorFactor" : [0.5, 0.5, 0.5, 1], "metallicFactor" : 0, "roughnessFactor" : 0}, "emissiveFactor" : [0, 0, 0], "alphaMode" : "OPAQUE", "doubleSided" : false}], "meshes" : [{"primitives" : [{"attributes" : {"POSITION" : 1, "NORMAL" : 2, "TEXCOORD_0" : 3}, "indices" : 0, "material" : 0, "mode" : 4}], "name" : ""}], "nodes" : [{"mesh" : 0, "name" : "pTorus5"}], "scene" : 0, "scenes" : [{"nodes" : [0]}]}