{"accessors" : [{"bufferView" : 0, "byteOffset" : 0, "componentType" : 5123, "count" : 57396, "type" : "SCALAR", "max" : [57395], "min" : [0]}, {"bufferView" : 1, "byteOffset" : 0, "componentType" : 5126, "count" : 57396, "type" : "VEC3", "max" : [-30.037282943725586, 14.77626895904541, 118.76925659179688], "min" : [-51.74978256225586, -0.8754110336303711, 108.36502075195312], "name" : "POSITION"}, {"bufferView" : 1, "byteOffset" : 12, "componentType" : 5126, "count" : 57396, "type" : "VEC3", "max" : [1.0000044107437134, 1.0000044107437134, 1.0000044107437134], "min" : [-1.0000044107437134, -1.0000044107437134, -1.0000044107437134], "name" : "NORMAL"}, {"bufferView" : 1, "byteOffset" : 24, "componentType" : 5126, "count" : 57396, "type" : "VEC2", "max" : [0.990234375, -0.009765625], "min" : [0.009765625, -0.9864813685417175], "name" : "TEXCOORD_0"}, {"bufferView" : 0, "byteOffset" : 114792, "componentType" : 5123, "count" : 1572, "type" : "SCALAR", "max" : [1571], "min" : [0]}, {"bufferView" : 2, "byteOffset" : 0, "componentType" : 5126, "count" : 1572, "type" : "VEC3", "max" : [-25.579280853271484, 16.52914047241211, 124.46324157714844], "min" : [-56.93028259277344, -1.1499642133712769, 101.39369201660156], "name" : "POSITION"}, {"bufferView" : 2, "byteOffset" : 12, "componentType" : 5126, "count" : 1572, "type" : "VEC3", "max" : [1.0000044107437134, 1.0000044107437134, 1.0000044107437134], "min" : [-1.0000044107437134, -1.0000044107437134, -1.0000044107437134], "name" : "NORMAL"}, {"bufferView" : 2, "byteOffset" : 24, "componentType" : 5126, "count" : 1572, "type" : "VEC2", "max" : [0.9892622232437134, -0.044246941804885864], "min" : [0.016193252056837082, -0.9562445878982544], "name" : "TEXCOORD_0"}, {"bufferView" : 0, "byteOffset" : 117936, "componentType" : 5123, "count" : 78, "type" : "SCALAR", "max" : [77], "min" : [0]}, {"bufferView" : 3, "byteOffset" : 0, "componentType" : 5126, "count" : 78, "type" : "VEC3", "max" : [-22.252674102783203, -1.1837594509124756, 126.9103775024414], "min" : [-58.474510192871094, -1.7571990489959717, 94.59318542480469], "name" : "POSITION"}, {"bufferView" : 3, "byteOffset" : 12, "componentType" : 5126, "count" : 78, "type" : "VEC3", "max" : [1.0000044107437134, 0.9999909996986389, 1.0000044107437134], "min" : [-1.0000044107437134, 0, -1.0000044107437134], "name" : "NORMAL"}, {"bufferView" : 3, "byteOffset" : 24, "componentType" : 5126, "count" : 78, "type" : "VEC2", "max" : [0.990234375, -0.009765625], "min" : [0.009765625, -0.8872798085212708], "name" : "TEXCOORD_0"}], "asset" : {"generator" : "Aspose.3D 22.1", "version" : "2.0"}, "buffers" : [{"uri" : "data:application/octet-stream;base64,", "byteLength" : 2007580}], "bufferViews" : [{"buffer" : 0, "byteOffset" : 0, "byteLength" : 118092, "target" : 34963}, {"buffer" : 0, "byteOffset" : 118096, "byteLength" : 1836672, "byteStride" : 32, "target" : 34962}, {"buffer" : 0, "byteOffset" : 1954772, "byteLength" : 50304, "byteStride" : 32, "target" : 34962}, {"buffer" : 0, "byteOffset" : 2005080, "byteLength" : 2496, "byteStride" : 32, "target" : 34962}], "materials" : [{"name" : "", "pbrMetallicRoughness" : {"baseColorFactor" : [0, 0, 0, 1], "metallicFactor" : 0, "roughnessFactor" : 0}, "emissiveFactor" : [0, 0, 0], "alphaMode" : "OPAQUE", "doubleSided" : false}, {"name" : "", "pbrMetallicRoughness" : {"baseColorFactor" : [0, 0, 0, 1], "metallicFactor" : 0, "roughnessFactor" : 0}, "emissiveFactor" : [0, 0, 0], "alphaMode" : "OPAQUE", "doubleSided" : false}, {"name" : "", "pbrMetallicRoughness" : {"baseColorFactor" : [0, 0, 0, 1], "metallicFactor" : 0, "roughnessFactor" : 0}, "emissiveFactor" : [0, 0, 0], "alphaMode" : "OPAQUE", "doubleSided" : false}], "meshes" : [{"primitives" : [{"attributes" : {"POSITION" : 1, "NORMAL" : 2, "TEXCOORD_0" : 3}, "indices" : 0, "material" : 0, "mode" : 4}], "name" : ""}, {"primitives" : [{"attributes" : {"POSITION" : 5, "NORMAL" : 6, "TEXCOORD_0" : 7}, "indices" : 4, "material" : 1, "mode" : 4}], "name" : ""}, {"primitives" : [{"attributes" : {"POSITION" : 9, "NORMAL" : 10, "TEXCOORD_0" : 11}, "indices" : 8, "material" : 2, "mode" : 4}], "name" : ""}], "nodes" : [{"matrix" : [1.1870332190821773, 0, 0, 0, 0, 1.1870332190821773, 0, 0, 0, 0, 1.1870332190821773, 0, 7.716014449820692, -0.2064160536750296, -23.17021936328616, 1], "mesh" : 0, "name" : "barra_gym4_pCylinder288"}, {"matrix" : [1.1870332190821773, 0, 0, 0, 0, 1.1870332190821773, 0, 0, 0, 0, 1.1870332190821773, 0, 7.716014449820692, -0.2064160536750296, -23.17021936328616, 1], "mesh" : 1, "name" : "pCube297"}, {"mesh" : 2, "name" : "pCube846"}, {"children" : [0, 1, 2], "matrix" : [0.8424364069383056, 0, 0, 0, 0, 0.8424364069383056, 0, 0, 0, 0, 0.8424364069383056, 0, 0, -1.2317922115325928, 2.1137869358062744, 1], "name" : "gym"}], "scene" : 0, "scenes" : [{"nodes" : [3]}]}