{"accessors" : [{"bufferView" : 0, "byteOffset" : 0, "componentType" : 5123, "count" : 18825, "type" : "SCALAR", "max" : [18824], "min" : [0]}, {"bufferView" : 1, "byteOffset" : 0, "componentType" : 5126, "count" : 18825, "type" : "VEC3", "max" : [33.448822021484375, 2.1946897506713867, 118.20782470703125], "min" : [25.080184936523438, -1.3303933143615723, 108.94326782226562], "name" : "POSITION"}, {"bufferView" : 1, "byteOffset" : 12, "componentType" : 5126, "count" : 18825, "type" : "VEC3", "max" : [1.0000044107437134, 1.0000044107437134, 1.0000044107437134], "min" : [-1.0000044107437134, -1.0000044107437134, -1.0000044107437134], "name" : "NORMAL"}, {"bufferView" : 1, "byteOffset" : 24, "componentType" : 5126, "count" : 18825, "type" : "VEC2", "max" : [0.986181378364563, -0.00977203156799078], "min" : [0.05634310841560364, -0.9882036447525024], "name" : "TEXCOORD_0"}], "asset" : {"generator" : "Aspose.3D 22.1", "version" : "2.0"}, "buffers" : [{"uri" : "data:application/octet-stream;base64,", "byteLength" : 640060}], "bufferViews" : [{"buffer" : 0, "byteOffset" : 0, "byteLength" : 37652, "target" : 34963}, {"buffer" : 0, "byteOffset" : 37656, "byteLength" : 602400, "byteStride" : 32, "target" : 34962}], "materials" : [{"name" : "", "pbrMetallicRoughness" : {"baseColorFactor" : [0.5, 0.5, 0.5, 1], "metallicFactor" : 0, "roughnessFactor" : 0}, "emissiveFactor" : [0, 0, 0], "alphaMode" : "OPAQUE", "doubleSided" : false}], "meshes" : [{"primitives" : [{"attributes" : {"POSITION" : 1, "NORMAL" : 2, "TEXCOORD_0" : 3}, "indices" : 0, "material" : 0, "mode" : 4}], "name" : ""}], "nodes" : [{"mesh" : 0, "name" : "polySurface95"}], "scene" : 0, "scenes" : [{"nodes" : [0]}]}