{"accessors" : [{"bufferView" : 0, "byteOffset" : 0, "componentType" : 5123, "count" : 24036, "type" : "SCALAR", "max" : [24035], "min" : [0]}, {"bufferView" : 1, "byteOffset" : 0, "componentType" : 5126, "count" : 24036, "type" : "VEC3", "max" : [65.51134490966797, 6.914581298828125, 110.32752227783203], "min" : [54.1893310546875, -0.9582351446151733, 100.3398666381836], "name" : "POSITION"}, {"bufferView" : 1, "byteOffset" : 12, "componentType" : 5126, "count" : 24036, "type" : "VEC3", "max" : [1.0000044107437134, 1.0000044107437134, 1.0000044107437134], "min" : [-1.0000044107437134, -1.0000044107437134, -1.0000044107437134], "name" : "NORMAL"}, {"bufferView" : 1, "byteOffset" : 24, "componentType" : 5126, "count" : 24036, "type" : "VEC2", "max" : [0.9888818860054016, -0.009765625], "min" : [0.009765625, -0.990234375], "name" : "TEXCOORD_0"}], "asset" : {"generator" : "Aspose.3D 22.1", "version" : "2.0"}, "buffers" : [{"uri" : "data:application/octet-stream;base64,", "byteLength" : 817232}], "bufferViews" : [{"buffer" : 0, "byteOffset" : 0, "byteLength" : 48072, "target" : 34963}, {"buffer" : 0, "byteOffset" : 48076, "byteLength" : 769152, "byteStride" : 32, "target" : 34962}], "materials" : [{"name" : "", "pbrMetallicRoughness" : {"baseColorFactor" : [0.5, 0.5, 0.5, 1], "metallicFactor" : 0, "roughnessFactor" : 0}, "emissiveFactor" : [0, 0, 0], "alphaMode" : "OPAQUE", "doubleSided" : false}], "meshes" : [{"primitives" : [{"attributes" : {"POSITION" : 1, "NORMAL" : 2, "TEXCOORD_0" : 3}, "indices" : 0, "material" : 0, "mode" : 4}], "name" : ""}], "nodes" : [{"mesh" : 0, "name" : "pCube350"}], "scene" : 0, "scenes" : [{"nodes" : [0]}]}